<svg width="925" height="260" viewBox="0 0 925 260" fill="none" xmlns="http://www.w3.org/2000/svg">
<path d="M11 26.58V172H41.8V26.58H11Z" fill="#66FCF1"/>
<path d="M66 216H96.8V166.94L66 136.14V216ZM152.9 70.58V148.9L73.48 69.7H66V73.44V87.3V105.78L96.8 136.58L117.92 157.7L154.44 194.22L176.22 216H183.7V70.58H152.9Z" fill="#66FCF1"/>
<path d="M208 84.88V109.96V172H238.8V109.96H324.82V79.16H208V84.88ZM337.8 57.6V26.8H208V57.6H337.8Z" fill="#66FCF1"/>
<path d="M362 70.58V216H392.8V70.58H362Z" fill="#66FCF1"/>
<path d="M559 70.58V216H589.8V70.58H559Z" fill="#66FCF1"/>
<path d="M417 172H447.8V122.94L417 92.14V172ZM503.9 26.58V104.9L424.48 25.7H417V29.44V43.3V61.78L447.8 92.58L468.92 113.7L505.44 150.22L527.22 172H534.7V26.58H503.9Z" fill="#66FCF1"/>
<path d="M693.64 172V79.16H662.84V172H693.64ZM614 26.8V57.6H662.84H693.64H744.9V26.8H614Z" fill="#66FCF1"/>
<path d="M875.7 70.36L873.94 72.78L841.38 117.22L808.82 72.78L807.06 70.36H769L775.6 79.6L823.34 144.72L824.66 146.7H824.88V146.92L825.98 148.46V216H856.78V148.24L857.88 146.92V146.7H858.1L859.42 144.72L907.16 79.6L913.76 70.36H875.7Z" fill="#66FCF1"/>
<path d="M813.81 50.406L819.354 45.282C823.554 41.418 824.352 38.814 824.352 35.958C824.352 30.498 819.69 27.012 812.928 27.012C807.132 27.012 802.974 29.448 800.748 33.144L806.922 36.588C808.098 34.698 810.03 33.732 812.172 33.732C814.692 33.732 815.952 34.866 815.952 36.756C815.952 37.974 815.616 39.318 813.264 41.502L802.26 51.792V57H825.15V50.406H813.81ZM851.007 57H860.667L848.025 40.62L860.037 27.6H850.881L839.499 39.822V27.6H831.267V57H839.499V49.65L842.607 46.332L851.007 57ZM875.067 50.406L880.611 45.282C884.811 41.418 885.609 38.814 885.609 35.958C885.609 30.498 880.947 27.012 874.185 27.012C868.389 27.012 864.231 29.448 862.005 33.144L868.179 36.588C869.355 34.698 871.287 33.732 873.429 33.732C875.949 33.732 877.209 34.866 877.209 36.756C877.209 37.974 876.873 39.318 874.521 41.502L863.517 51.792V57H886.407V50.406H875.067ZM902.393 50.406L907.937 45.282C912.137 41.418 912.935 38.814 912.935 35.958C912.935 30.498 908.273 27.012 901.511 27.012C895.715 27.012 891.557 29.448 889.331 33.144L895.505 36.588C896.681 34.698 898.613 33.732 900.755 33.732C903.275 33.732 904.535 34.866 904.535 36.756C904.535 37.974 904.199 39.318 901.847 41.502L890.843 51.792V57H913.733V50.406H902.393Z" fill="white"/>
</svg>
